<svg width="101" height="100" viewBox="0 0 101 100" fill="none" xmlns="http://www.w3.org/2000/svg">
<path d="M43.8984 6.64062C31.9844 9.14062 22.5312 17.8516 18.7812 29.6875C18 32.3047 17.8828 33.3594 17.8828 39.2578C17.8828 45.625 17.9609 46.0156 19.0547 49.2187L20.2656 52.5391L23.1562 52.4219C28.1562 52.1875 32.2188 54.2969 34.9141 58.5547C35.8516 60 36.0469 60.1562 36.2812 59.5312C37.1406 56.9141 38.8203 54.2578 40.6172 52.5C42.5312 50.6641 42.6875 50.4297 42.6875 48.7109V46.875L36.1641 46.7969L29.6016 46.6797V39.0625V31.4453L36.125 31.3281L42.6875 31.25L42.7656 24.6875L42.8828 18.1641H50.5H58.1172L58.2344 24.6875L58.3125 31.25L64.875 31.3281L71.3984 31.4453V39.0625V46.6797L64.875 46.7969L58.3125 46.875V48.75C58.3125 50.4687 58.4688 50.7422 60.4609 52.6562C62.2969 54.4922 63.8984 57.0312 64.7188 59.5312C64.9531 60.1562 65.1484 60 66.0859 58.5547C68.7812 54.2969 72.8438 52.1875 77.8438 52.4219L80.7344 52.5391L81.9453 49.2187C83.0391 46.0156 83.1172 45.625 83.1172 39.2578C83.1172 33.3594 83 32.3047 82.2188 29.6875C78.7812 18.8672 70.8906 10.8984 60.0703 7.42187C57.8438 6.71875 56.2422 6.52344 51.4766 6.40625C48.2734 6.32812 44.8359 6.44531 43.8984 6.64062Z" fill="#7AA8FC"/>
<path d="M45.4219 26.5625C45.4219 34.375 45.8125 33.9844 38 33.9844H32.1406V39.0625V44.1406H38C43.3516 44.1406 43.9375 44.2188 44.6406 44.9219C45.1875 45.4688 45.4219 46.2109 45.4219 47.4609V49.2188L47.1016 48.9453C49.2109 48.5547 51.7891 48.5547 53.9375 48.9453L55.5781 49.2188V47.4609C55.5781 46.2109 55.8125 45.4688 56.3594 44.9219C57.0625 44.2188 57.6484 44.1406 63 44.1406H68.8594V39.0625V33.9844H63C57.6484 33.9844 57.0625 33.9062 56.3594 33.2031C55.6562 32.5 55.5781 31.9141 55.5781 26.5625V20.7031H50.5H45.4219V26.5625Z" fill="#7AA8FC"/>
<path d="M47.1797 51.6797C41.9063 53.4375 38.7031 57.5781 38.625 62.6953C38.5469 67.7344 40.7734 71.5234 45.0312 73.75C47.4531 75 47.7266 75.0781 50.8906 74.9219C55.9297 74.6875 59.0156 72.7344 61.0469 68.5937C64.875 60.8203 59.7578 51.8359 51.2031 51.3281C49.7969 51.25 48.0781 51.4062 47.1797 51.6797Z" fill="#7AA8FC"/>
<path d="M19.6406 56.1328C11.3594 60.5078 12.8437 72.6562 21.9063 74.6484C27.375 75.8984 32.6484 72.5781 33.7813 67.1484C34.6797 62.8125 32.9609 58.75 29.2891 56.4844C27.8047 55.5859 26.8672 55.3125 24.6016 55.1953C22.0625 55.0391 21.5938 55.1172 19.6406 56.1328Z" fill="#7AA8FC"/>
<path d="M72.375 56.1328C68.8984 57.9688 66.9062 61.2109 66.9062 65.0781C66.9062 73.5156 77.6094 78.1641 83.625 72.3047C85.6953 70.2734 86.4766 68.7109 86.7109 66.0547C87.2578 60.0391 83.3906 55.5469 77.2969 55.1563C74.7969 55.0391 74.2891 55.1172 72.375 56.1328Z" fill="#7AA8FC"/>
<path d="M12.4531 74.6094C10.1875 75.5078 8.54688 76.9531 7.49219 78.9844C6.90625 80.1172 6.75 81.25 6.75 84.3359C6.75 88.2031 6.75 88.2031 7.96094 89.2188L9.17188 90.2344H17.7266H26.2812V87.3828C26.2812 83.9453 27.1016 80.625 28.4688 78.4766C29.6016 76.6797 29.5234 76.25 28.1562 76.9922C27.6484 77.3047 25.9688 77.5 24.1328 77.5C21.5547 77.5 20.6172 77.3047 18.8203 76.4453C17.6094 75.8594 16.3203 75.0391 15.9297 74.6094C15.0703 73.6719 14.875 73.6719 12.4531 74.6094Z" fill="#7AA8FC"/>
<path d="M85.0703 74.6094C84.6797 75.0391 83.3906 75.8594 82.1797 76.4453C80.3438 77.3828 79.4844 77.5391 76.8672 77.5391C75.0703 77.5 73.3516 77.3047 72.8438 76.9922C72.3359 76.7188 71.8672 76.5625 71.7891 76.6406C71.7109 76.7188 72.2578 78.0078 73 79.4922C74.1719 81.875 74.3672 82.7344 74.6016 86.2109L74.8359 90.2344H83.3516H91.8281L93.0391 89.2188C94.25 88.2031 94.25 88.2031 94.25 84.3359C94.25 80.0391 93.8594 78.8672 91.7891 76.6406C90.7734 75.5859 87.2188 73.8281 86.0859 73.8281C85.9297 73.8281 85.4609 74.1797 85.0703 74.6094Z" fill="#7AA8FC"/>
<path d="M37.0234 75.2344C31.75 77.0312 29.4453 80.1172 29.0938 85.7812C28.8594 89.8438 29.1719 91.4453 30.4609 92.7344L31.4766 93.75H50.4609H69.4844L70.6562 92.5391C71.75 91.3672 71.7891 91.25 71.7891 87.1875C71.7891 83.3984 71.6719 82.7734 70.6953 80.7422C69.2891 77.8906 67.1406 76.25 63.3516 75.0391L60.4219 74.1406L58.5078 75.3516C53.3516 78.5938 46.8281 78.4766 41.9844 75.0781C40.5391 74.0234 40.4609 74.0234 37.0234 75.2344Z" fill="#7AA8FC"/>
</svg>
